<svg xmlns="http://www.w3.org/2000/svg" xmlns:xlink="http://www.w3.org/1999/xlink" width="2912" zoomAndPan="magnify" viewBox="0 0 2184 374.999991" height="500" preserveAspectRatio="xMidYMid meet" version="1.0"><path fill="#f8ecd1" d="M 1539.1875 387.371094 C 1540.859375 389.28125 1542.652344 391.074219 1544.921875 392.269531 C 1551.015625 395.734375 1558.777344 394.417969 1565.230469 391.671875 C 1571.679688 388.925781 1577.652344 384.980469 1584.339844 382.953125 C 1586.25 382.355469 1588.640625 382.117188 1589.953125 383.546875 C 1590.910156 384.625 1591.03125 386.175781 1591.984375 387.132812 C 1592.820312 388.085938 1594.253906 388.328125 1595.570312 388.328125 C 1600.226562 388.566406 1605.839844 388.085938 1608.230469 392.03125 C 1610.378906 395.375 1608.707031 400.628906 1611.695312 403.378906 C 1612.648438 404.332031 1614.082031 404.691406 1614.917969 405.765625 C 1615.996094 407.078125 1615.996094 409.109375 1617.1875 410.066406 C 1617.785156 410.542969 1618.621094 410.664062 1619.339844 411.023438 C 1622.5625 412.214844 1622.683594 414.964844 1623.878906 417.589844 C 1628.417969 427.503906 1639.527344 440.644531 1651.828125 439.449219 C 1656.84375 438.972656 1661.265625 435.867188 1665.921875 433.957031 C 1670.582031 432.164062 1675.597656 431.6875 1680.496094 430.96875 C 1694.472656 429.058594 1708.328125 425.714844 1721.707031 420.9375 C 1725.289062 419.621094 1728.871094 418.308594 1732.457031 417.113281 C 1736.515625 415.800781 1740.578125 414.84375 1744.757812 413.886719 C 1750.132812 412.574219 1755.390625 411.378906 1760.765625 410.066406 C 1763.152344 409.46875 1765.542969 408.992188 1767.933594 408.394531 C 1778.085938 406.003906 1788.359375 403.496094 1798.75 402.300781 C 1803.886719 401.703125 1809.261719 401.347656 1813.921875 399.316406 C 1817.382812 397.882812 1820.371094 395.492188 1823.59375 393.703125 C 1836.375 386.296875 1852.980469 384.863281 1862.773438 373.753906 C 1864.683594 371.605469 1866.359375 368.976562 1868.386719 366.945312 C 1873.285156 361.929688 1880.214844 359.660156 1886.902344 357.628906 C 1891.441406 356.195312 1896.21875 354.761719 1900.757812 356.195312 C 1903.507812 357.03125 1905.894531 358.941406 1908.644531 359.898438 C 1918.796875 363.480469 1929.664062 354.285156 1940.175781 356.433594 C 1940.894531 356.554688 1944 360.496094 1945.433594 361.09375 C 1948.300781 362.285156 1951.644531 362.765625 1954.628906 363.363281 C 1961.917969 364.796875 1969.203125 365.988281 1976.488281 366.707031 C 1981.148438 367.183594 1987 366.945312 1990.464844 364.4375 C 1998.945312 358.34375 2008.5 357.390625 2017.9375 357.03125 C 2028.089844 356.671875 2037.886719 357.746094 2047.800781 353.449219 C 2053.054688 351.179688 2060.101562 351.894531 2066.074219 352.730469 C 2070.015625 353.207031 2072.40625 351.894531 2075.394531 350.34375 C 2079.574219 348.074219 2084.710938 347.476562 2088.414062 344.847656 C 2091.277344 342.699219 2092.355469 338.515625 2093.789062 345.683594 C 2094.027344 346.640625 2099.878906 347.117188 2103.105469 346.757812 C 2105.972656 346.398438 2110.75 346.757812 2109.195312 341.023438 C 2109.195312 340.90625 2110.628906 340.070312 2110.75 340.070312 C 2119.109375 349.863281 2129.023438 346.042969 2138.699219 343.054688 C 2140.730469 342.457031 2142.640625 341.265625 2144.554688 340.1875 C 2149.808594 337.5625 2154.46875 334.695312 2161.15625 337.082031 C 2166.652344 339.113281 2174.894531 330.871094 2175.96875 324.898438 C 2182.417969 288.230469 2179.550781 251.199219 2180.386719 214.289062 C 2181.820312 148.472656 2181.703125 82.660156 2182.179688 16.84375 C 2182.179688 14.691406 2182.058594 12.421875 2182.058594 10.273438 C 2182.058594 6.09375 2179.910156 3.582031 2175.847656 3.824219 C 2153.035156 5.015625 2129.742188 0 2107.285156 7.40625 C 2106.089844 7.765625 2104.417969 7.167969 2103.105469 6.6875 C 2095.699219 3.582031 2088.292969 4.660156 2080.527344 5.015625 C 2071.09375 5.375 2064.882812 8.957031 2058.789062 15.050781 C 2056.28125 17.558594 2052.695312 18.992188 2048.636719 16.125 C 2047.082031 15.050781 2044.097656 16.125 2041.707031 16.484375 C 2029.644531 18.035156 2018.652344 24.246094 2006.230469 24.488281 C 2005.632812 24.488281 2005.035156 24.726562 2004.441406 25.085938 C 1994.40625 30.9375 1983.535156 35.714844 1974.695312 43 C 1968.128906 48.496094 1963.828125 56.976562 1959.050781 64.382812 C 1953.675781 72.863281 1951.046875 73.9375 1941.371094 70.953125 C 1937.308594 69.757812 1933.011719 69.636719 1928.828125 68.5625 C 1925.605469 67.726562 1921.78125 67.128906 1919.273438 65.097656 C 1908.285156 56.261719 1897.292969 58.53125 1885.46875 63.425781 C 1870.179688 69.757812 1854.769531 70.953125 1838.046875 66.292969 C 1826.34375 63.070312 1819.652344 53.511719 1809.140625 49.332031 C 1803.289062 47.0625 1798.511719 42.164062 1791.34375 44.433594 C 1789.910156 44.914062 1787.878906 43.359375 1786.089844 42.882812 C 1779.28125 40.96875 1772.472656 39.296875 1765.78125 37.269531 C 1763.152344 36.550781 1760.40625 35.835938 1758.136719 34.402344 C 1752.640625 31.054688 1747.265625 28.429688 1740.457031 27.355469 C 1734.84375 26.515625 1729.828125 21.023438 1724.574219 17.679688 C 1723.378906 16.84375 1721.707031 15.527344 1720.628906 15.886719 C 1711.671875 18.753906 1702.714844 21.023438 1694.472656 26.875 C 1689.214844 30.578125 1681.453125 32.730469 1673.449219 30.339844 C 1667.835938 28.667969 1661.382812 29.742188 1655.410156 29.027344 C 1645.617188 27.710938 1635.941406 21.976562 1626.027344 28.90625 C 1625.429688 29.265625 1624.234375 28.90625 1623.398438 28.667969 C 1622.5625 28.429688 1621.726562 27.351562 1620.890625 27.351562 C 1610.019531 27.351562 1598.914062 26.277344 1588.164062 27.832031 C 1581.472656 28.785156 1575.382812 33.683594 1569.050781 36.671875 C 1564.152344 38.941406 1559.136719 40.132812 1553.878906 37.386719 C 1549.222656 34.878906 1544.5625 34.160156 1539.664062 36.789062 C 1539.425781 36.910156 1539.1875 37.269531 1538.828125 37.269531 C 1533.8125 37.507812 1528.675781 37.148438 1523.777344 38.105469 C 1519 39.058594 1514.460938 43 1510.042969 42.761719 C 1497.5 42.164062 1484.957031 40.613281 1472.65625 38.582031 C 1467.28125 37.625 1462.859375 37.863281 1458.800781 41.566406 C 1455.453125 44.554688 1452.109375 44.792969 1447.691406 43.480469 C 1434.910156 39.777344 1422.605469 32.609375 1408.273438 36.671875 C 1406.480469 37.148438 1403.972656 35.953125 1402.0625 35 C 1395.492188 31.773438 1388.683594 31.652344 1382.589844 35 C 1378.050781 37.386719 1375.066406 34.519531 1372.4375 32.96875 C 1363.480469 27.355469 1355.117188 29.382812 1346.875 33.921875 C 1339.46875 37.984375 1332.660156 42.164062 1323.464844 39.179688 C 1315.582031 36.550781 1309.011719 32.96875 1303.753906 26.160156 C 1298.140625 18.871094 1288.347656 18.035156 1280.582031 24.367188 C 1275.445312 28.546875 1269.832031 29.265625 1264.933594 27.472656 C 1257.527344 24.726562 1251.4375 26.515625 1245.464844 29.625 C 1234.476562 35.355469 1223.605469 36.191406 1212.496094 30.460938 C 1207.242188 27.710938 1202.703125 29.863281 1198.523438 32.371094 C 1191.117188 36.789062 1183.828125 41.566406 1176.542969 46.226562 C 1169.019531 51.125 1161.492188 56.019531 1153.96875 61.039062 C 1153.132812 61.515625 1152.054688 61.875 1151.699219 62.589844 C 1147.398438 69.28125 1140.230469 71.429688 1133.660156 74.773438 C 1126.015625 78.714844 1118.847656 83.972656 1112.878906 90.0625 C 1106.070312 96.992188 1098.066406 98.785156 1089.464844 98.542969 C 1082.179688 98.425781 1075.011719 95.796875 1067.605469 95.199219 C 1058.050781 94.484375 1049.570312 91.976562 1040.730469 87.792969 C 1034.878906 85.046875 1026.636719 88.152344 1019.230469 86.003906 C 1010.152344 83.375 1000.476562 82.898438 991.039062 81.582031 C 989.246094 81.34375 986.980469 80.746094 985.664062 81.582031 C 980.765625 84.210938 975.75 85.882812 973.363281 79.3125 C 971.808594 75.253906 964.402344 74.175781 967.507812 67.847656 C 967.746094 67.367188 965.835938 65.21875 965.359375 65.339844 C 961.058594 66.890625 956.640625 68.445312 952.578125 70.472656 C 951.621094 70.953125 951.742188 73.222656 951.144531 74.535156 C 950.546875 75.609375 949.832031 77.164062 948.875 77.402344 C 942.902344 79.433594 936.929688 81.582031 930.71875 82.777344 C 923.789062 84.210938 916.625 84.929688 909.574219 85.523438 C 903.363281 86.003906 897.152344 85.40625 892.136719 90.421875 C 890.941406 91.617188 888.195312 91.738281 886.164062 91.617188 C 881.863281 91.496094 877.921875 91.257812 873.859375 94.125 C 871.949219 95.558594 866.457031 94.246094 864.1875 92.332031 C 858.8125 88.035156 856.300781 87.316406 851.164062 92.09375 C 846.867188 96.15625 842.804688 100.457031 838.742188 104.757812 C 834.5625 109.175781 830.382812 111.085938 825.125 106.308594 C 822.378906 103.800781 818.4375 102.367188 816.527344 99.382812 C 813.179688 94.484375 807.925781 92.8125 803.625 93.410156 C 789.890625 95.199219 777.585938 90.660156 765.164062 86.601562 C 763.730469 86.121094 762.058594 86.121094 760.625 85.40625 C 750.828125 80.984375 741.988281 81.34375 733.152344 88.628906 C 730.402344 90.898438 724.074219 90.542969 720.011719 89.226562 C 712.964844 87.199219 706.753906 86.957031 700.542969 91.140625 C 699.824219 91.617188 698.75 92.691406 698.152344 92.453125 C 689.550781 89.707031 682.742188 94.484375 675.21875 97.351562 C 664.945312 101.292969 654.195312 103.441406 645.59375 111.085938 C 641.414062 114.789062 636.277344 119.089844 630.304688 112.878906 C 629.589844 112.160156 626.722656 112.640625 625.289062 113.476562 C 621.347656 115.984375 617.40625 118.492188 614.0625 121.71875 C 609.761719 125.777344 606.175781 129.003906 599.011719 128.40625 C 594.113281 128.046875 589.097656 134.378906 583.601562 135.691406 C 575.242188 137.722656 566.878906 141.070312 557.800781 139.875 C 555.890625 139.636719 553.859375 141.070312 551.828125 141.546875 C 547.050781 142.859375 542.035156 145.847656 537.734375 144.890625 C 530.445312 143.339844 523.042969 144.769531 515.636719 140.949219 C 507.511719 136.769531 497.957031 141.546875 491.148438 146.445312 C 482.429688 152.65625 474.1875 155.164062 463.554688 154.207031 C 457.34375 153.730469 450.65625 156.714844 444.445312 159.105469 C 432.976562 163.40625 421.628906 168.300781 410.28125 173.199219 C 401.683594 176.902344 393.199219 180.84375 384.601562 184.546875 C 380.539062 186.21875 376.121094 186.699219 374.449219 181.5625 C 369.429688 165.914062 355.695312 164.71875 342.914062 161.851562 C 342.078125 161.613281 340.761719 161.253906 340.167969 161.613281 C 331.445312 167.347656 327.503906 158.867188 321.769531 155.640625 C 318.664062 153.847656 315.796875 150.742188 312.453125 150.148438 C 299.433594 147.636719 286.414062 145.25 273.273438 144.054688 C 267.183594 143.457031 260.851562 145.726562 254.640625 146.683594 C 253.445312 146.921875 251.65625 147.519531 251.058594 146.921875 C 243.890625 140.113281 236.484375 145.609375 229.078125 146.203125 C 224.0625 146.5625 218.804688 145.847656 213.789062 145.367188 C 211.402344 145.128906 208.890625 143.578125 206.621094 143.695312 C 202.203125 143.933594 200.054688 141.308594 197.425781 138.441406 C 193.484375 134.140625 189.421875 129.363281 184.40625 126.855469 C 179.507812 124.347656 173.296875 124.226562 167.5625 123.628906 C 162.308594 123.03125 158.605469 121 155.261719 116.582031 C 150.722656 110.609375 144.988281 106.191406 136.148438 107.742188 C 132.566406 108.339844 128.503906 105.949219 124.5625 105.351562 C 122.054688 104.996094 118.707031 104.160156 116.917969 105.472656 C 104.734375 114.191406 91.59375 111.804688 78.695312 108.460938 C 73.558594 107.144531 67.347656 107.144531 64 101.53125 C 63.523438 100.695312 61.132812 100.695312 59.703125 100.933594 C 44.410156 103.324219 31.871094 97.589844 19.6875 88.75 C 12.640625 83.613281 6.425781 75.492188 -4.800781 77.523438 C -9.816406 78.476562 -15.433594 76.089844 -20.808594 75.609375 C -30.125 74.773438 -32.75 77.640625 -33.828125 86.480469 C -38.605469 125.898438 -36.695312 165.554688 -37.289062 205.09375 C -38.125 251.917969 -37.886719 298.621094 -38.246094 345.445312 C -38.484375 371.007812 -38.84375 396.570312 -39.203125 422.128906 C -39.320312 433.121094 -37.410156 435.03125 -26.777344 435.148438 C -25.226562 435.148438 -23.671875 435.269531 -22.121094 435.628906 C -8.503906 439.210938 4.992188 443.390625 18.851562 446.378906 C 25.660156 447.8125 33.421875 448.886719 39.753906 446.976562 C 50.863281 443.632812 61.730469 447.09375 72.601562 445.421875 C 73.914062 445.183594 75.707031 446.019531 77.019531 446.738281 C 86.816406 452.113281 97.328125 454.5 108.554688 453.664062 C 109.511719 453.546875 111.304688 454.261719 111.542969 454.980469 C 113.574219 460.59375 118.113281 459.875 122.410156 459.398438 C 131.011719 458.441406 138.296875 460.472656 143.914062 467.519531 C 145.347656 469.3125 148.210938 469.910156 150.363281 470.984375 C 154.425781 473.253906 159.203125 474.6875 162.546875 477.792969 C 175.445312 489.859375 188.347656 484.242188 202.441406 480.183594 C 214.863281 476.597656 228.242188 475.882812 241.261719 475.523438 C 257.867188 474.925781 274.589844 476 291.3125 476.121094 C 296.804688 476.121094 302.300781 476.359375 306.71875 471.34375 C 308.273438 469.550781 312.8125 468.597656 315.082031 469.550781 C 320.933594 471.703125 325.355469 469.671875 330.011719 466.921875 C 332.042969 465.730469 335.386719 463.699219 336.464844 464.414062 C 346.136719 471.222656 352.589844 459.996094 361.070312 460.113281 C 362.382812 460.113281 363.9375 456.292969 364.890625 454.140625 C 367.28125 448.171875 369.074219 447.09375 372.894531 451.277344 C 376.71875 455.335938 379.105469 452.949219 383.046875 452.113281 C 391.289062 450.320312 400.007812 449.605469 408.492188 449.84375 C 414.105469 449.960938 419.71875 452.710938 425.332031 453.902344 C 431.066406 454.980469 436.917969 455.574219 442.652344 456.410156 C 446.59375 457.007812 451.015625 456.53125 454.597656 458.085938 C 468.214844 464.175781 481.234375 462.980469 494.015625 456.054688 C 495.6875 455.097656 498.195312 455.695312 500.226562 455.574219 C 502.019531 455.457031 504.644531 455.933594 505.484375 454.859375 C 511.695312 447.574219 519.695312 450.558594 527.101562 450.441406 C 528.65625 450.441406 530.804688 451.277344 531.523438 450.558594 C 536.179688 445.421875 541.675781 447.691406 547.050781 448.289062 C 553.023438 448.886719 558.875 448.648438 565.085938 446.855469 C 574.402344 444.226562 584.320312 445.183594 592.800781 438.136719 C 596.382812 435.148438 603.429688 436.703125 607.371094 431.6875 C 608.089844 430.730469 611.433594 431.328125 613.34375 431.925781 C 631.261719 437.539062 648.820312 440.046875 666.738281 431.207031 C 670.558594 429.296875 675.816406 430.132812 680.355469 429.65625 C 685.96875 429.058594 691.464844 428.101562 694.925781 422.726562 C 696.71875 419.859375 699.109375 418.308594 702.8125 420.21875 C 703.765625 420.695312 705.4375 420.816406 706.394531 420.339844 C 715.234375 415.800781 722.519531 418.90625 730.402344 423.683594 C 734.585938 426.191406 740.675781 426.667969 745.574219 426.070312 C 750.230469 425.476562 753.21875 425.832031 755.726562 429.894531 C 759.070312 435.148438 763.371094 436.824219 769.105469 433.359375 C 770.300781 432.640625 772.210938 431.925781 773.523438 432.285156 C 783.917969 435.269531 793.710938 432.402344 803.746094 430.609375 C 810.910156 429.296875 818.078125 431.449219 824.289062 436.464844 C 825.605469 437.539062 829.308594 437.539062 830.5 436.464844 C 838.625 429.535156 848.777344 428.460938 858.453125 426.3125 C 863.707031 425.117188 869.800781 427.386719 875.535156 428.339844 C 877.085938 428.582031 878.640625 430.015625 879.832031 429.773438 C 888.554688 427.503906 896.914062 429.179688 905.394531 431.207031 C 906.710938 431.566406 908.738281 431.328125 909.816406 430.492188 C 929.40625 415.320312 951.980469 416.039062 974.914062 418.070312 C 980.765625 418.667969 986.5 419.261719 992.355469 419.742188 C 993.308594 419.859375 994.382812 419.621094 995.101562 420.101562 C 1003.703125 424.757812 1012.421875 429.179688 1020.664062 434.554688 C 1026.398438 438.257812 1031.535156 442.4375 1039.179688 441.71875 C 1043.359375 441.363281 1046.34375 443.632812 1048.015625 448.289062 C 1051.003906 457.128906 1052.4375 457.488281 1062.589844 456.652344 C 1064.738281 456.53125 1067.007812 456.53125 1068.921875 457.367188 C 1075.25 459.875 1081.34375 460.355469 1087.554688 457.25 C 1092.808594 454.621094 1098.183594 452.46875 1104.277344 454.023438 C 1105.472656 454.261719 1107.621094 453.425781 1108.457031 452.351562 C 1111.324219 448.648438 1114.667969 448.886719 1118.371094 450.441406 C 1123.628906 452.589844 1128.046875 451.394531 1131.75 447.214844 C 1134.738281 443.871094 1138.082031 441.363281 1143.097656 443.988281 C 1144.769531 444.824219 1147.160156 444.109375 1149.308594 444.109375 C 1156.117188 444.109375 1162.925781 443.511719 1169.617188 444.347656 C 1175.828125 445.066406 1181.558594 445.421875 1185.980469 440.285156 C 1189.800781 435.867188 1194.339844 435.390625 1199.476562 437.0625 C 1201.507812 437.777344 1203.65625 438.851562 1205.808594 438.734375 C 1215.125 438.496094 1223.605469 440.40625 1230.652344 446.976562 C 1231.847656 448.171875 1234.476562 449.246094 1235.789062 448.648438 C 1243.671875 445.660156 1249.40625 450.320312 1255.855469 453.066406 C 1257.289062 453.664062 1260.992188 452.589844 1261.710938 451.277344 C 1263.980469 446.976562 1266.964844 447.335938 1270.308594 448.886719 C 1277.476562 452.351562 1286.4375 451.15625 1292.527344 457.726562 C 1293.722656 459.039062 1297.664062 457.964844 1300.292969 457.605469 C 1303.039062 457.25 1306.027344 455.21875 1308.296875 455.933594 C 1317.132812 458.800781 1325.375 455.816406 1333.976562 455.097656 C 1340.785156 454.5 1347.953125 457.605469 1354.878906 458.441406 C 1359.65625 459.039062 1364.554688 458.679688 1369.332031 458.800781 C 1369.929688 458.800781 1370.648438 458.441406 1371.125 458.679688 C 1380.5625 463.578125 1390.117188 460.710938 1399.433594 457.007812 C 1401.585938 456.171875 1403.734375 455.21875 1405.882812 454.5 C 1407.796875 453.785156 1410.421875 453.902344 1411.976562 453.066406 C 1415.320312 451.394531 1415.796875 446.140625 1419.742188 445.421875 C 1421.53125 445.066406 1423.5625 446.140625 1425.355469 445.660156 C 1427.625 445.066406 1428.578125 442.4375 1430.011719 440.644531 C 1432.042969 438.257812 1435.148438 437.0625 1438.136719 436.105469 C 1440.046875 435.507812 1441.359375 435.390625 1442.078125 433.835938 C 1442.554688 432.640625 1441.839844 429.535156 1442.078125 428.101562 C 1442.675781 424.398438 1444.109375 420.9375 1446.617188 418.1875 C 1449.601562 414.722656 1453.78125 412.335938 1458.320312 411.976562 C 1462.859375 411.617188 1467.519531 413.53125 1470.386719 417.113281 C 1477.910156 419.503906 1485.796875 415.800781 1492.84375 412.214844 C 1496.1875 410.542969 1499.652344 408.632812 1501.441406 405.527344 C 1502.398438 403.855469 1502.875 401.824219 1503.953125 400.152344 C 1505.742188 397.164062 1509.085938 395.375 1512.3125 393.820312 C 1513.269531 393.34375 1514.222656 392.867188 1514.941406 392.03125 C 1517.210938 389.402344 1515.539062 384.742188 1517.925781 382.113281 C 1519.359375 380.5625 1521.628906 380.324219 1523.660156 379.726562 C 1527.003906 378.769531 1529.992188 376.738281 1532.023438 373.875 C 1533.097656 373.875 1533.8125 374.949219 1533.933594 376.023438 C 1534.050781 377.097656 1533.8125 378.171875 1533.933594 379.128906 C 1534.050781 380.324219 1534.769531 381.277344 1535.367188 382.234375 C 1536.5625 383.789062 1537.753906 385.699219 1539.1875 387.371094 Z M 1539.1875 387.371094 " fill-opacity="1" fill-rule="nonzero"/></svg>